<?xml version="1.0" encoding="UTF-8"?><svg id="b" xmlns="http://www.w3.org/2000/svg" width="1167.2" height="496.86" viewBox="0 0 1167.2 496.86"><defs><style>.d{fill:#2e8375;}.e,.f{fill:#df6227;}.f{font-family:CocogoosePro-Letterpress, 'Cocogoose Pro';font-size:65.64px;}</style></defs><g id="c"><text class="f" transform="translate(0 473.68)"><tspan x="0" y="0">for the people</tspan></text><path class="d" d="m486.87,349.83c0,5.43-2.72,8.14-8.14,8.14h-41.46c-1.89,0-3.57-.63-5.02-1.89-1.45-1.26-2.72-2.81-3.79-4.64-1.07-1.83-1.99-3.72-2.75-5.68-.76-1.96-1.39-3.63-1.89-5.02l-2.46-6.44c-8.33,8.71-17.79,15.46-28.39,20.25-10.6,4.79-22.02,7.19-34.26,7.19-15.27,0-29.94-2.84-44.01-8.52-14.07-5.68-26.5-13.72-37.29-24.14-10.79-10.41-19.37-22.93-25.75-37.58-6.37-14.64-9.56-30.86-9.56-48.65,0-16.4,3-31.86,8.99-46.38,5.99-14.51,14.2-27.16,24.61-37.95,10.41-10.79,22.75-19.31,37.01-25.56,14.26-6.25,29.59-9.37,46-9.37,14.01,0,26.5,2.75,37.48,8.23,10.98,5.49,20.51,12.97,28.58,22.43l7.19-20.07c1.01-2.9,1.96-4.98,2.84-6.25.88-1.26,2.65-1.89,5.3-1.89h38.62c5.42,0,8.14,2.72,8.14,8.14v215.61Zm-73.73-129.29c-2.84-6.94-6.75-13.03-11.74-18.27-4.99-5.24-10.86-9.4-17.61-12.49-6.75-3.09-14.04-4.64-21.86-4.64-7.19,0-14.07,1.39-20.63,4.16-6.56,2.78-12.34,6.69-17.32,11.74-4.99,5.05-8.96,11.07-11.93,18.08-2.97,7-4.45,14.8-4.45,23.38s1.39,15.81,4.16,22.81c2.77,7,6.56,13.06,11.36,18.17,4.79,5.11,10.54,9.12,17.23,12.02,6.69,2.9,13.88,4.35,21.58,4.35s15.11-1.54,21.86-4.64c6.75-3.09,12.62-7.22,17.61-12.4,4.98-5.17,8.9-11.26,11.74-18.27,2.84-7,4.26-14.35,4.26-22.05s-1.42-15.02-4.26-21.96Z"/><path class="d" d="m876.44,190.63v159.39c0,5.3-2.72,7.95-8.14,7.95h-54.33c-5.3,0-7.95-2.65-7.95-7.95v-159.39h-25.37c-4.92,0-7.38-2.46-7.38-7.38v-49.03c0-2.14.63-3.88,1.89-5.21,1.26-1.32,3.09-1.99,5.49-1.99h25.37V59.39c0-2.65.57-4.79,1.7-6.44,1.14-1.64,3.53-3.09,7.19-4.35l47.51-15.71c1.39-.5,2.84-.76,4.35-.76,2.78,0,5.08.95,6.91,2.84,1.83,1.89,2.75,4.73,2.75,8.52v83.54h30.48c2.4,0,4.19.76,5.39,2.27,1.2,1.51,1.8,3.16,1.8,4.92v49.03c0,4.92-2.4,7.38-7.19,7.38h-30.48Z"/><path class="d" d="m1097.35,134.6c-.13-2.9.6-5.05,2.18-6.44,1.58-1.39,3.75-2.08,6.53-2.08h52.62c5.68,0,8.52,2.84,8.52,8.52v214.86c0,5.68-2.84,8.52-8.52,8.52h-33.69c-2.91,0-5.62-1.04-8.14-3.12-2.53-2.08-4.16-4.51-4.92-7.29l-5.3-20.25c-4.8,6.44-10.07,11.86-15.81,16.28-5.74,4.42-11.74,7.95-17.98,10.6-6.25,2.65-12.65,4.57-19.21,5.77-6.56,1.2-13.13,1.8-19.69,1.8-5.05,0-10.7-.57-16.94-1.7-6.25-1.14-12.56-3.12-18.93-5.96-6.37-2.84-12.56-6.65-18.55-11.45-6-4.79-11.3-10.88-15.9-18.27-4.61-7.38-8.33-16.18-11.17-26.41-2.84-10.22-4.26-22.15-4.26-35.78v-127.78c0-5.55,2.77-8.33,8.33-8.33h51.49c5.55,0,8.33,2.78,8.33,8.33v122.86c0,5.3.98,10.35,2.93,15.14,1.96,4.8,4.73,9.02,8.33,12.68,3.6,3.66,7.95,6.56,13.06,8.71,5.11,2.15,10.89,3.22,17.32,3.22,3.03,0,6.78-.57,11.26-1.7,4.48-1.14,8.8-3.22,12.97-6.25,4.16-3.03,7.73-7.13,10.7-12.3,2.96-5.17,4.45-11.8,4.45-19.88v-122.29Z"/><path class="d" d="m210.69,241.37c-5.18-11.11-12.05-20.64-20.64-28.58,5.3-6.19,9.34-13.19,12.12-21.02,2.78-7.82,4.17-16.27,4.17-25.36,0-10.85-2.06-21.04-6.16-30.57-4.11-9.53-9.69-17.83-16.76-24.89-7.06-7.07-15.33-12.65-24.8-16.76-9.46-4.1-19.5-6.16-30.1-6.16H7.95C2.65,88.03,0,90.74,0,96.17v253.85c0,5.3,2.65,7.95,7.95,7.95h131.19c10.73,0,20.89-2.17,30.48-6.53,9.58-4.35,18.01-10.28,25.27-17.8,7.26-7.5,13-16.18,17.23-26.03,4.22-9.84,6.34-20.25,6.34-31.23,0-12.24-2.59-23.91-7.76-35.02Zm-48.92,36.36c-12.52,19.7-26.61,37.84-33.89,46.89-7.88,9.81-19.63,15.44-32.22,15.44s-24.33-5.63-32.23-15.43c-7.28-9.06-21.37-27.19-33.89-46.9C10.93,248.42,2.27,226.01,2.27,207.2c0-51.5,41.89-93.4,93.4-93.4s93.4,41.9,93.4,93.4c0,18.81-8.68,41.21-27.3,70.52Z"/><path class="e" d="m153.04,207.2c0,26.47-40.05,78.44-53.24,94.83-1.06,1.33-2.6,1.99-4.14,1.99s-3.09-.66-4.15-1.99c-13.18-16.39-53.23-68.36-53.23-94.83,0-31.68,25.68-57.37,57.37-57.37s57.37,25.69,57.37,57.37Z"/><path class="d" d="m671.63,233.41c0-5.93-.92-11.45-2.75-16.56-1.83-5.11-4.45-9.56-7.86-13.35-3.41-3.79-7.54-6.75-12.4-8.9-4.86-2.15-10.38-3.22-16.56-3.22s-11.83,1.07-16.94,3.22c-5.11,2.15-9.5,5.11-13.16,8.9-3.66,3.79-6.5,8.24-8.52,13.35-2.02,5.11-3.03,10.63-3.03,16.56v117.37c0,1.39-.38,2.72-1.14,3.98-.76,1.26-1.77,2.37-3.03,3.31-1.26.95-2.62,1.7-4.07,2.27-1.45.57-2.87.85-4.26.85h-48.65c-5.81,0-8.71-2.84-8.71-8.52v-214.86c0-5.68,2.9-8.52,8.71-8.52h33.7c2.9,0,5.61,1.04,8.14,3.12,2.52,2.08,4.16,4.51,4.92,7.29l5.11,20.82c4.67-6.06,9.81-11.23,15.43-15.52,5.61-4.29,11.51-7.79,17.7-10.51,6.18-2.71,12.56-4.7,19.12-5.96,6.56-1.26,13.12-1.89,19.69-1.89,5.05,0,10.72.66,17.04,1.99,6.31,1.33,12.65,3.54,19.02,6.63,6.37,3.09,12.59,7.13,18.65,12.11,6.06,4.99,11.45,11.17,16.18,18.55,4.73,7.38,8.52,16.06,11.36,26.03,2.84,9.97,4.26,21.39,4.26,34.26v126.64c0,5.55-2.78,8.33-8.33,8.33h-50.92c-5.81,0-8.71-2.77-8.71-8.33v-119.45Z"/><path class="e" d="m894.16,32.35c0-1.85.9-2.77,2.71-2.77h10.32c.92,0,1.75.15,2.49.44.73.29,1.42,1.2,2.05,2.71l2.64,6.73c1.26-1.38,2.49-2.72,3.68-4,1.2-1.28,2.5-2.41,3.9-3.4,1.4-.99,3-1.77,4.78-2.36,1.78-.59,3.89-.88,6.32-.88s4.95.41,7.3,1.23c2.35.82,4.48,1.77,6.39,2.86,1.91,1.09,3.54,2.16,4.91,3.21,1.36,1.05,2.3,1.8,2.8,2.27,1.05.92,1.57,1.75,1.57,2.49s-.29,1.52-.88,2.36l-7.87,11.14c-.55.8-1.17,1.2-1.89,1.2-.63,0-1.28-.29-1.95-.88-.55-.46-1.21-1.03-1.98-1.7-.78-.67-1.68-1.31-2.71-1.92-1.03-.61-2.19-1.12-3.49-1.54-1.3-.42-2.75-.63-4.34-.63-1.85,0-3.59.28-5.22.85-1.64.57-3.07,1.42-4.31,2.55-1.24,1.13-2.21,2.55-2.93,4.25-.71,1.7-1.07,3.66-1.07,5.88v41.54c0,1.8-.92,2.71-2.77,2.71h-17.75c-1.8,0-2.71-.9-2.71-2.71V32.35Z"/><path class="e" d="m975.18,44.33c-4.13,0-8.05-.85-11.62-2.39v62.09c0,1.76.89,2.65,2.65,2.65h17.94c1.76,0,2.64-.89,2.64-2.65v-62.09c-3.57,1.54-7.49,2.39-11.61,2.39Zm1.95-14.75h-3.9c.63.09,1.28.13,1.95.13s1.32-.04,1.95-.13Z"/><path class="e" d="m1078.42,103.97c0,1.8-.9,2.71-2.71,2.71h-14.54c-.63,0-1.19-.21-1.67-.63-.48-.42-.9-.93-1.26-1.54-.36-.61-.66-1.24-.91-1.89-.25-.65-.46-1.21-.63-1.67l-.76-1.95c-2.6,2.77-5.55,4.95-8.84,6.54-3.29,1.59-6.89,2.39-10.79,2.39-5.08,0-9.89-.94-14.44-2.83-4.55-1.89-8.54-4.56-11.96-8.02-3.42-3.46-6.13-7.62-8.12-12.49-1.99-4.87-2.99-10.26-2.99-16.17,0-5.45.9-10.58,2.71-15.39,1.8-4.8,4.35-9,7.65-12.59,3.29-3.59,7.25-6.42,11.86-8.5,4.61-2.08,9.71-3.11,15.29-3.11,3.94,0,7.48.66,10.6,1.98,3.12,1.32,5.93,3.14,8.4,5.44V9.82c0-1.8.9-2.71,2.71-2.71h17.68c1.8,0,2.71.9,2.71,2.71v94.15Zm-22.91-43.27c-1.01-2.33-2.38-4.35-4.12-6.07-1.74-1.72-3.78-3.07-6.1-4.06-2.33-.99-4.79-1.48-7.39-1.48s-4.91.51-7.05,1.54c-2.14,1.03-3.98,2.42-5.51,4.19-1.53,1.76-2.73,3.81-3.59,6.14-.86,2.33-1.29,4.77-1.29,7.33s.43,5.13,1.29,7.46c.86,2.33,2.06,4.35,3.59,6.07,1.53,1.72,3.37,3.07,5.51,4.06,2.14.99,4.49,1.48,7.05,1.48s5.07-.48,7.39-1.45c2.33-.96,4.36-2.31,6.1-4.03,1.74-1.72,3.12-3.74,4.12-6.07,1.01-2.33,1.51-4.83,1.51-7.52s-.5-5.26-1.51-7.58Z"/><path class="e" d="m1151.24,81.37c.71,0,1.28.29,1.7.88l7.74,10.7c.63.84.94,1.58.94,2.23s-.36,1.27-1.07,1.86c-2.52,2.22-5.01,4.05-7.49,5.48-2.48,1.43-4.91,2.54-7.3,3.34-2.39.8-4.76,1.34-7.11,1.64-2.35.29-4.7.44-7.05.44-5.2,0-10.2-1.04-14.98-3.11-4.78-2.08-8.99-4.9-12.62-8.46-3.63-3.57-6.52-7.75-8.68-12.56-2.16-4.8-3.24-9.93-3.24-15.39s.94-10.57,2.83-15.36c1.89-4.78,4.54-8.97,7.96-12.56,3.42-3.59,7.52-6.42,12.3-8.5,4.78-2.08,10.05-3.12,15.8-3.12,2.39,0,4.94.31,7.65.94,2.71.63,5.38,1.62,8.02,2.96,2.64,1.34,5.18,3.05,7.62,5.13,2.43,2.08,4.57,4.56,6.42,7.46,1.85,2.89,3.32,6.21,4.44,9.94,1.11,3.73,1.67,7.93,1.67,12.59,0,1.64-.16,2.96-.47,3.96-.31,1.01-.84,1.77-1.57,2.3-.73.53-1.67.88-2.8,1.07s-2.52.28-4.15.28h-43.55c.59,2.06,1.43,3.9,2.52,5.54,1.09,1.64,2.39,3.03,3.9,4.18,1.51,1.15,3.19,2.05,5.03,2.67,1.85.63,3.78.94,5.79.94,2.9,0,5.29-.23,7.17-.69,1.89-.46,3.49-1.04,4.81-1.73,1.32-.69,2.44-1.44,3.37-2.23.92-.8,1.85-1.55,2.77-2.27.54-.38,1.09-.57,1.64-.57Zm-25.8-33.35c-1.51.59-2.9,1.38-4.15,2.39-1.26,1.01-2.37,2.18-3.34,3.52-.97,1.34-1.8,2.79-2.52,4.34h30.52c-1.6-3.57-3.73-6.31-6.42-8.24-2.69-1.93-5.77-2.89-9.25-2.89-1.72,0-3.34.29-4.85.88Z"/><path class="d" d="m990.03,14.85c0,7.54-5.61,13.78-12.9,14.73-.63.09-1.28.13-1.95.13s-1.32-.04-1.95-.13c-7.29-.95-12.91-7.19-12.91-14.73,0-8.2,6.65-14.85,14.86-14.85s14.85,6.65,14.85,14.85Z"/><rect class="e" x="623.17" y="445.9" width="544.03" height="6.31"/></g></svg>